<?xml version="1.0" standalone="no"?>
<!DOCTYPE svg PUBLIC "-//W3C//DTD SVG 20010904//EN"
 "http://www.w3.org/TR/2001/REC-SVG-20010904/DTD/svg10.dtd">
<svg version="1.0" xmlns="http://www.w3.org/2000/svg"
 width="104.000000pt" height="104.000000pt" viewBox="0 0 104.000000 104.000000"
 preserveAspectRatio="xMidYMid meet">
<metadata>
Created by potrace 1.11, written by Peter Selinger 2001-2013
</metadata>
<g transform="translate(0.000000,104.000000) scale(0.100000,-0.100000)"
fill="#000000" stroke="none">
<path d="M10 537 c0 -452 2 -507 16 -522 19 -19 38 -15 42 8 2 11 -3 17 -16
17 -20 0 -20 7 -19 345 1 190 5 345 9 345 4 0 113 -79 244 -175 157 -117 240
-173 248 -167 60 49 460 342 465 342 5 0 6 -580 2 -682 -1 -11 -6 -15 -16 -12
-10 4 -15 0 -15 -15 0 -28 46 -30 55 -2 6 21 4 1011 -2 1011 -4 0 -387 -275
-469 -336 l-30 -23 -245 175 c-134 97 -250 181 -256 186 -10 8 -13 -92 -13
-495z"/>
</g>
</svg>
